<svg class="site-bg__prism" width="249" height="249" viewBox="0 0 249 249" fill="none" xmlns="http://www.w3.org/2000/svg">
<path d="M0.300049 95.3L67.5 68.8L71.5 79.2L4.40005 105.7L0.300049 95.3Z" fill="#94ED68"/>
<path d="M20.4196 62.1807L92.6143 63.0627L92.751 51.8736L20.5564 50.9915L20.4196 62.1807Z" fill="#94ED68"/>
<path d="M56 17.5L122.5 45.7L118.2 56L51.7 27.8L56 17.5Z" fill="#94ED68"/>
<path d="M101.4 0L152.5 51.3L144.6 59.2L93.6001 7.9L101.4 0Z" fill="#94ED68"/>
<path d="M150 0.899902L178 67.6999L167.8 72.0999L139.8 5.1999L150 0.899902Z" fill="#94ED68"/>
<path d="M185.138 21.1338L184.885 93.6333L196.025 93.6722L196.278 21.1726L185.138 21.1338Z" fill="#94ED68"/>
<path d="M230.7 57.7999L202.3 124.4L192.1 120L220.5 53.3999L230.7 57.7999Z" fill="#94ED68"/>
<path d="M248.6 104.5L196.4 154.7L188.7 146.6L240.9 96.3999L248.6 104.5Z" fill="#94ED68"/>
<path d="M246.8 155.2L179.2 180.4L175.3 169.9L242.9 144.7L246.8 155.2Z" fill="#94ED68"/>
<path d="M225.811 188.139L153.647 185.872L153.295 197.056L225.46 199.324L225.811 188.139Z" fill="#94ED68"/>
<path d="M189.7 231.9L123.7 202.5L128.2 192.3L194.2 221.7L189.7 231.9Z" fill="#94ED68"/>
<path d="M144 248.6L93.8999 196.3L101.9 188.6L152 240.8L144 248.6Z" fill="#94ED68"/>
<path d="M95.4001 246.8L68.6001 179.4L79.0001 175.3L105.7 242.7L95.4001 246.8Z" fill="#94ED68"/>
<path d="M62.1665 226.602L62.6726 154.104L51.5329 154.026L51.0267 226.524L62.1665 226.602Z" fill="#94ED68"/>
<path d="M17.7 191.2L45.4 124.3L55.5999 128.5L28 195.5L17.7 191.2Z" fill="#94ED68"/>
<path d="M0 145.7L50.8 94.1001L58.7 102L7.9 153.6L0 145.7Z" fill="#94ED68"/>
</svg>
